# ProBuilder 4.2.3
# https://unity3d.com/unity/features/worldbuilding/probuilder
# 2020/12/6 20:14:20

mtllib ./Pipe.mtl
o Pipe

g Pipe
v -1.961571 -1 0.3901806
v -2 -1 0
v -1.961571 1 0.3901806
v -2 1 0
v -1.99 -1 0
v -1.951763 -1 0.3882298
v -1.99 1 0
v -1.951763 1 0.3882298
v -1.847759 -1 0.7653669
v -1.847759 1 0.7653669
v -1.83852 -1 0.7615401
v -1.83852 1 0.7615401
v -1.662939 -1 1.11114
v -1.662939 1 1.11114
v -1.654624 -1 1.105585
v -1.654624 1 1.105585
v -1.414214 -1 1.414214
v -1.414214 1 1.414214
v -1.407143 -1 1.407143
v -1.407143 1 1.407143
v -1.11114 -1 1.662939
v -1.11114 1 1.662939
v -1.105585 -1 1.654624
v -1.105585 1 1.654624
v -0.7653668 -1 1.847759
v -0.7653668 1 1.847759
v -0.7615399 -1 1.83852
v -0.7615399 1 1.83852
v -0.3901807 -1 1.961571
v -0.3901807 1 1.961571
v -0.3882298 -1 1.951763
v -0.3882298 1 1.951763
v 0 -1 2
v 0 1 2
v 0 -1 1.99
v 0 1 1.99
v 0.3901806 -1 1.961571
v 0.3901806 1 1.961571
v 0.3882298 -1 1.951763
v 0.3882298 1 1.951763
v 0.7653668 -1 1.847759
v 0.7653668 1 1.847759
v 0.7615399 -1 1.83852
v 0.7615399 1 1.83852
v 1.11114 -1 1.662939
v 1.11114 1 1.662939
v 1.105585 -1 1.654625
v 1.105585 1 1.654625
v 1.414214 -1 1.414214
v 1.414214 1 1.414214
v 1.407143 -1 1.407143
v 1.407143 1 1.407143
v 1.662939 -1 1.11114
v 1.662939 1 1.11114
v 1.654624 -1 1.105585
v 1.654624 1 1.105585
v 1.847759 -1 0.765367
v 1.847759 1 0.765367
v 1.83852 -1 0.7615401
v 1.83852 1 0.7615401
v 1.961571 -1 0.3901806
v 1.961571 1 0.3901806
v 1.951763 -1 0.3882297
v 1.951763 1 0.3882297
v 2 -1 -1.748456E-07
v 2 1 -1.748456E-07
v 1.99 -1 -1.739713E-07
v 1.99 1 -1.739713E-07
v 1.961571 -1 -0.3901805
v 1.961571 1 -0.3901805
v 1.951763 -1 -0.3882296
v 1.951763 1 -0.3882296
v 1.847759 -1 -0.7653669
v 1.847759 1 -0.7653669
v 1.83852 -1 -0.76154
v 1.83852 1 -0.76154
v 1.662939 -1 -1.111141
v 1.662939 1 -1.111141
v 1.654624 -1 -1.105585
v 1.654624 1 -1.105585
v 1.414214 -1 -1.414213
v 1.414214 1 -1.414213
v 1.407143 -1 -1.407142
v 1.407143 1 -1.407142
v 1.111141 -1 -1.662939
v 1.111141 1 -1.662939
v 1.105585 -1 -1.654624
v 1.105585 1 -1.654624
v 0.765367 -1 -1.847759
v 0.765367 1 -1.847759
v 0.7615404 -1 -1.83852
v 0.7615404 1 -1.83852
v 0.3901808 -1 -1.961571
v 0.3901808 1 -1.961571
v 0.3882298 -1 -1.951763
v 0.3882298 1 -1.951763
v 0 -1 -2
v 0 1 -2
v 0 -1 -1.99
v 0 1 -1.99
v -0.3901808 -1 -1.961571
v -0.3901808 1 -1.961571
v -0.38823 -1 -1.951763
v -0.38823 1 -1.951763
v -0.7653673 -1 -1.847759
v -0.7653673 1 -1.847759
v -0.7615404 -1 -1.83852
v -0.7615404 1 -1.83852
v -1.11114 -1 -1.662939
v -1.11114 1 -1.662939
v -1.105584 -1 -1.654625
v -1.105584 1 -1.654625
v -1.414213 -1 -1.414214
v -1.414213 1 -1.414214
v -1.407142 -1 -1.407143
v -1.407142 1 -1.407143
v -1.662939 -1 -1.111141
v -1.662939 1 -1.111141
v -1.654624 -1 -1.105585
v -1.654624 1 -1.105585
v -1.847759 -1 -0.7653669
v -1.847759 1 -0.7653669
v -1.83852 -1 -0.76154
v -1.83852 1 -0.76154
v -1.961571 -1 -0.3901805
v -1.961571 1 -0.3901805
v -1.951763 -1 -0.3882296
v -1.951763 1 -0.3882296

vt 0.196034 -1
vt -0.1960346 -1
vt 0.196034 1
vt -0.1960346 1
vt 0.1950543 -1
vt -0.1950539 -1
vt 0.1950543 1
vt -0.1950539 1
vt -2 0
vt -1.961571 0.3901806
vt -1.99 0
vt -1.951763 0.3882298
vt 1.961571 0.3901806
vt 2 0
vt 1.951763 0.3882298
vt 1.99 0
vt -1.847759 0.7653669
vt -1.83852 0.7615401
vt 1.847759 0.7653669
vt 1.83852 0.7615401
vt -1.662939 1.11114
vt -1.654624 1.105585
vt 1.662939 1.11114
vt 1.654624 1.105585
vt -1.414214 1.414214
vt -1.407143 1.407143
vt 1.414214 1.414214
vt 1.407143 1.407143
vt -1.11114 1.662939
vt -1.105585 1.654624
vt 1.11114 1.662939
vt 1.105585 1.654624
vt -0.7653668 1.847759
vt -0.7615399 1.83852
vt 0.7653668 1.847759
vt 0.7615399 1.83852
vt -0.3901807 1.961571
vt -0.3882298 1.951763
vt 0.3901807 1.961571
vt 0.3882298 1.951763
vt 0 2
vt 0 1.99
vt 1.961571 -0.3901805
vt 1.951763 -0.3882296
vt -1.961571 -0.3901805
vt -1.951763 -0.3882296
vt 1.847759 -0.7653669
vt 1.83852 -0.76154
vt -1.847759 -0.7653669
vt -1.83852 -0.76154
vt 1.662939 -1.111141
vt 1.654624 -1.105585
vt -1.662939 -1.111141
vt -1.654624 -1.105585
vt 1.414214 -1.414213
vt 1.407143 -1.407142
vt -1.414214 -1.414213
vt -1.407143 -1.407142
vt 1.111141 -1.662939
vt 1.105585 -1.654624
vt -1.111141 -1.662939
vt -1.105585 -1.654624
vt 0.765367 -1.847759
vt 0.7615404 -1.83852
vt -0.765367 -1.847759
vt -0.7615404 -1.83852
vt 0.3901808 -1.961571
vt 0.3882298 -1.951763
vt -0.3901808 -1.961571
vt -0.3882298 -1.951763
vt 0 -2
vt 0 -1.99

vn -0.9951847 0 0.09801729
vn 0.9951847 0 -0.09801725
vn -0.9569404 0 0.2902846
vn 0.9569403 0 -0.2902848
vn -0.8819213 0 0.4713967
vn 0.8819213 0 -0.4713967
vn -0.7730104 0 0.6343933
vn 0.7730106 0 -0.6343931
vn -0.6343933 0 0.7730104
vn 0.6343931 0 -0.7730106
vn -0.4713966 0 0.8819214
vn 0.4713966 0 -0.8819214
vn -0.2902848 0 0.9569403
vn 0.290285 0 -0.9569402
vn -0.09801728 0 0.9951847
vn 0.09801722 0 -0.9951847
vn 0.09801731 0 0.9951847
vn -0.09801722 0 -0.9951847
vn 0.2902844 0 0.9569404
vn -0.2902847 0 -0.9569404
vn 0.4713969 0 0.8819212
vn -0.4713967 0 -0.8819213
vn 0.6343931 0 0.7730107
vn -0.634393 0 -0.7730107
vn 0.7730106 0 0.6343932
vn -0.7730109 0 -0.6343928
vn 0.8819213 0 0.4713967
vn -0.8819213 0 -0.4713967
vn 0.9569402 0 0.2902851
vn -0.9569402 0 -0.2902851
vn 0.9951848 0 0.09801666
vn -0.9951847 0 -0.09801721
vn 0 -1 0
vn 0 1 0

usemtl ProBuilder_Default_URP
f 3/3/1 4/4/1 2/2/1 1/1/1
f 7/7/2 8/8/2 6/6/2 5/5/2
f 10/3/3 3/4/3 1/2/3 9/1/3
f 8/7/4 12/8/4 11/6/4 6/5/4
f 14/3/5 10/4/5 9/2/5 13/1/5
f 12/7/6 16/8/6 15/6/6 11/5/6
f 18/3/7 14/4/7 13/2/7 17/1/7
f 16/7/8 20/8/8 19/6/8 15/5/8
f 22/3/9 18/4/9 17/2/9 21/1/9
f 20/7/10 24/8/10 23/6/10 19/5/10
f 26/3/11 22/4/11 21/2/11 25/1/11
f 24/7/12 28/8/12 27/6/12 23/5/12
f 30/3/13 26/4/13 25/2/13 29/1/13
f 28/7/14 32/8/14 31/6/14 27/5/14
f 34/3/15 30/4/15 29/2/15 33/1/15
f 32/7/16 36/8/16 35/6/16 31/5/16
f 38/3/17 34/4/17 33/2/17 37/1/17
f 36/7/18 40/8/18 39/6/18 35/5/18
f 42/3/19 38/4/19 37/2/19 41/1/19
f 40/7/20 44/8/20 43/6/20 39/5/20
f 46/3/21 42/4/21 41/2/21 45/1/21
f 44/7/22 48/8/22 47/6/22 43/5/22
f 50/3/23 46/4/23 45/2/23 49/1/23
f 48/7/24 52/8/24 51/6/24 47/5/24
f 54/3/25 50/4/25 49/2/25 53/1/25
f 52/7/26 56/8/26 55/6/26 51/5/26
f 58/3/27 54/4/27 53/2/27 57/1/27
f 56/7/28 60/8/28 59/6/28 55/5/28
f 62/3/29 58/4/29 57/2/29 61/1/29
f 60/7/30 64/8/30 63/6/30 59/5/30
f 66/3/31 62/4/31 61/2/31 65/1/31
f 64/7/32 68/8/32 67/6/32 63/5/32
f 70/3/2 66/4/2 65/2/2 69/1/2
f 68/7/1 72/8/1 71/6/1 67/5/1
f 74/3/4 70/4/4 69/2/4 73/1/4
f 72/7/3 76/8/3 75/6/3 71/5/3
f 78/3/6 74/4/6 73/2/6 77/1/6
f 76/7/5 80/8/5 79/6/5 75/5/5
f 82/3/8 78/4/8 77/2/8 81/1/8
f 80/7/7 84/8/7 83/6/7 79/5/7
f 86/3/10 82/4/10 81/2/10 85/1/10
f 84/7/9 88/8/9 87/6/9 83/5/9
f 90/3/12 86/4/12 85/2/12 89/1/12
f 88/7/11 92/8/11 91/6/11 87/5/11
f 94/3/14 90/4/14 89/2/14 93/1/14
f 92/7/13 96/8/13 95/6/13 91/5/13
f 98/3/16 94/4/16 93/2/16 97/1/16
f 96/7/15 100/8/15 99/6/15 95/5/15
f 102/3/18 98/4/18 97/2/18 101/1/18
f 100/7/17 104/8/17 103/6/17 99/5/17
f 106/3/20 102/4/20 101/2/20 105/1/20
f 104/7/19 108/8/19 107/6/19 103/5/19
f 110/3/22 106/4/22 105/2/22 109/1/22
f 108/7/21 112/8/21 111/6/21 107/5/21
f 114/3/24 110/4/24 109/2/24 113/1/24
f 112/7/23 116/8/23 115/6/23 111/5/23
f 118/3/26 114/4/26 113/2/26 117/1/26
f 116/7/25 120/8/25 119/6/25 115/5/25
f 122/3/28 118/4/28 117/2/28 121/1/28
f 120/7/27 124/8/27 123/6/27 119/5/27
f 126/3/30 122/4/30 121/2/30 125/1/30
f 124/7/29 128/8/29 127/6/29 123/5/29
f 4/3/32 126/4/32 125/2/32 2/1/32
f 128/7/31 7/8/31 5/6/31 127/5/31
f 5/11/33 6/12/33 1/10/33 2/9/33
f 8/15/34 7/16/34 4/14/34 3/13/34
f 6/12/33 11/18/33 9/17/33 1/10/33
f 12/20/34 8/15/34 3/13/34 10/19/34
f 11/18/33 15/22/33 13/21/33 9/17/33
f 16/24/34 12/20/34 10/19/34 14/23/34
f 15/22/33 19/26/33 17/25/33 13/21/33
f 20/28/34 16/24/34 14/23/34 18/27/34
f 19/26/33 23/30/33 21/29/33 17/25/33
f 24/32/34 20/28/34 18/27/34 22/31/34
f 23/30/33 27/34/33 25/33/33 21/29/33
f 28/36/34 24/32/34 22/31/34 26/35/34
f 27/34/33 31/38/33 29/37/33 25/33/33
f 32/40/34 28/36/34 26/35/34 30/39/34
f 31/38/33 35/42/33 33/41/33 29/37/33
f 36/42/34 32/40/34 30/39/34 34/41/34
f 35/42/33 39/40/33 37/39/33 33/41/33
f 40/38/34 36/42/34 34/41/34 38/37/34
f 39/40/33 43/36/33 41/35/33 37/39/33
f 44/34/34 40/38/34 38/37/34 42/33/34
f 43/36/33 47/32/33 45/31/33 41/35/33
f 48/30/34 44/34/34 42/33/34 46/29/34
f 47/32/33 51/28/33 49/27/33 45/31/33
f 52/26/34 48/30/34 46/29/34 50/25/34
f 51/28/33 55/24/33 53/23/33 49/27/33
f 56/22/34 52/26/34 50/25/34 54/21/34
f 55/24/33 59/20/33 57/19/33 53/23/33
f 60/18/34 56/22/34 54/21/34 58/17/34
f 59/20/33 63/15/33 61/13/33 57/19/33
f 64/12/34 60/18/34 58/17/34 62/10/34
f 63/15/33 67/16/33 65/14/33 61/13/33
f 68/11/34 64/12/34 62/10/34 66/9/34
f 67/16/33 71/44/33 69/43/33 65/14/33
f 72/46/34 68/11/34 66/9/34 70/45/34
f 71/44/33 75/48/33 73/47/33 69/43/33
f 76/50/34 72/46/34 70/45/34 74/49/34
f 75/48/33 79/52/33 77/51/33 73/47/33
f 80/54/34 76/50/34 74/49/34 78/53/34
f 79/52/33 83/56/33 81/55/33 77/51/33
f 84/58/34 80/54/34 78/53/34 82/57/34
f 83/56/33 87/60/33 85/59/33 81/55/33
f 88/62/34 84/58/34 82/57/34 86/61/34
f 87/60/33 91/64/33 89/63/33 85/59/33
f 92/66/34 88/62/34 86/61/34 90/65/34
f 91/64/33 95/68/33 93/67/33 89/63/33
f 96/70/34 92/66/34 90/65/34 94/69/34
f 95/68/33 99/72/33 97/71/33 93/67/33
f 100/72/34 96/70/34 94/69/34 98/71/34
f 99/72/33 103/70/33 101/69/33 97/71/33
f 104/68/34 100/72/34 98/71/34 102/67/34
f 103/70/33 107/66/33 105/65/33 101/69/33
f 108/64/34 104/68/34 102/67/34 106/63/34
f 107/66/33 111/62/33 109/61/33 105/65/33
f 112/60/34 108/64/34 106/63/34 110/59/34
f 111/62/33 115/58/33 113/57/33 109/61/33
f 116/56/34 112/60/34 110/59/34 114/55/34
f 115/58/33 119/54/33 117/53/33 113/57/33
f 120/52/34 116/56/34 114/55/34 118/51/34
f 119/54/33 123/50/33 121/49/33 117/53/33
f 124/48/34 120/52/34 118/51/34 122/47/34
f 123/50/33 127/46/33 125/45/33 121/49/33
f 128/44/34 124/48/34 122/47/34 126/43/34
f 127/46/33 5/11/33 2/9/33 125/45/33
f 7/16/34 128/44/34 126/43/34 4/14/34

